<svg width="28" height="26" viewBox="0 0 28 26" fill="none" xmlns="http://www.w3.org/2000/svg">
<path d="M6.33099 10H17.67C17.9584 9.99997 18.2433 10.0623 18.5053 10.1827C18.7674 10.3031 19.0003 10.4788 19.188 10.6976C19.3758 10.9164 19.5141 11.1733 19.5933 11.4506C19.6725 11.7279 19.6908 12.019 19.647 12.304L18.392 20.456C18.283 21.1644 17.924 21.8105 17.38 22.2771C16.8359 22.7438 16.1428 23.0002 15.426 23H8.57399C7.85739 23 7.16447 22.7434 6.62062 22.2768C6.07677 21.8102 5.71791 21.1643 5.60899 20.456L4.35399 12.304C4.31016 12.019 4.32848 11.7279 4.40769 11.4506C4.48691 11.1733 4.62515 10.9164 4.81293 10.6976C5.00072 10.4788 5.23361 10.3031 5.49563 10.1827C5.75766 10.0623 6.04262 9.99997 6.33099 10Z" stroke="black" stroke-opacity="0.5" stroke-width="2" stroke-linecap="round" stroke-linejoin="round"/>
<path d="M9 13V8C9 7.20435 9.31607 6.44129 9.87868 5.87868C10.4413 5.31607 11.2044 5 12 5C12.7956 5 13.5587 5.31607 14.1213 5.87868C14.6839 6.44129 15 7.20435 15 8V13" stroke="black" stroke-opacity="0.5" stroke-width="2" stroke-linecap="round" stroke-linejoin="round"/>
<rect x="16" y="1" width="12" height="12" rx="2" fill="#E25A85"/>
<path d="M20.405 4.375V3.439H22.277V10H21.242V4.375H20.405Z" fill="white"/>
</svg>
