<svg width="29" height="25" viewBox="0 0 29 25" fill="none" xmlns="http://www.w3.org/2000/svg">
<path d="M4 21.875V8.33337C4 7.50457 4.31607 6.70972 4.87868 6.12367C5.44129 5.53761 6.20435 5.20837 7 5.20837H17C17.7956 5.20837 18.5587 5.53761 19.1213 6.12367C19.6839 6.70972 20 7.50457 20 8.33337V14.5834C20 15.4122 19.6839 16.207 19.1213 16.7931C18.5587 17.3791 17.7956 17.7084 17 17.7084H8L4 21.875Z" stroke="black" stroke-opacity="0.5" stroke-width="2" stroke-linecap="round" stroke-linejoin="round"/>
<path d="M8 9.375H16" stroke="black" stroke-opacity="0.5" stroke-width="2" stroke-linecap="round" stroke-linejoin="round"/>
<path d="M8 13.5416H14" stroke="black" stroke-opacity="0.5" stroke-width="2" stroke-linecap="round" stroke-linejoin="round"/>
<rect x="17" width="12" height="12" rx="2" fill="#E25A85"/>
<path d="M19.616 7.416C19.6693 7.68267 19.784 7.88533 19.96 8.024C20.136 8.16267 20.3733 8.232 20.672 8.232C21.0507 8.232 21.328 8.08267 21.504 7.784C21.68 7.48533 21.768 6.976 21.768 6.256C21.64 6.43733 21.4587 6.57867 21.224 6.68C20.9947 6.776 20.744 6.824 20.472 6.824C20.1253 6.824 19.8107 6.75467 19.528 6.616C19.2453 6.472 19.0213 6.26133 18.856 5.984C18.696 5.70133 18.616 5.36 18.616 4.96C18.616 4.37333 18.7867 3.90667 19.128 3.56C19.4747 3.208 19.9493 3.032 20.552 3.032C21.2773 3.032 21.792 3.27467 22.096 3.76C22.4053 4.24 22.56 4.97867 22.56 5.976C22.56 6.664 22.5013 7.22667 22.384 7.664C22.272 8.10133 22.0747 8.432 21.792 8.656C21.5093 8.88 21.1173 8.992 20.616 8.992C20.0453 8.992 19.6053 8.84267 19.296 8.544C18.9867 8.24533 18.8133 7.86933 18.776 7.416H19.616ZM20.632 6.056C20.952 6.056 21.2027 5.95733 21.384 5.76C21.5707 5.55733 21.664 5.29067 21.664 4.96C21.664 4.592 21.5653 4.30667 21.368 4.104C21.176 3.896 20.912 3.792 20.576 3.792C20.24 3.792 19.9733 3.89867 19.776 4.112C19.584 4.32 19.488 4.59467 19.488 4.936C19.488 5.26133 19.5813 5.53067 19.768 5.744C19.96 5.952 20.248 6.056 20.632 6.056ZM27.9741 6.496H26.3581V8.152H25.5101V6.496H23.8941V5.728H25.5101V4.072H26.3581V5.728H27.9741V6.496Z" fill="white"/>
</svg>
